{"title":"The Apparition (2012) 720p Blu-Ray x264 [Dual-Audio] [English 5.","uid":10950459,"size":887795691,"categoryP":"video","categoryS":"other","magnet":"?xt=urn:btih:e289cb15aae5054ee21b09b7f107227a449b8cdc&amp;dn=The+Apparition+%282012%29+720p+Blu-Ray+x264+%5BDual-Audio%5D+%5BEnglish+5.&amp;tr=udp%3A%2F%2Ftracker.openbittorrent.com%3A80&amp;tr=udp%3A%2F%2Fopen.demonii.com%3A1337&amp;tr=udp%3A%2F%2Ftracker.coppersurfer.tk%3A6969&amp;tr=udp%3A%2F%2Fexodus.desync.com%3A6969","seeders":2,"leechers":2,"uploader":null,"files":4,"time":1409629312,"description":"\nVideo\nID : 1\nFormat : AVC\nFormat/Info : Advanced Video Codec\nFormat profile : &lt;a class=&quot;__cf_email__&quot; href=&quot;/cdn-cgi/l/email-protection&quot; data-cfemail=&quot;f4bc9d939cb4b8c7dac5&quot;&gt;[email&amp;#160;protected]&lt;/a&gt;&lt;script cf-hash='f9e31' type=&quot;text/javascript&quot;&gt;\n/* &lt;![CDATA[ */!function(){try{var t=&quot;currentScript&quot;in document?document.currentScript:function(){for(var t=document.getElementsByTagName(&quot;script&quot;),e=t.length;e--;)if(t[e].getAttribute(&quot;cf-hash&quot;))return t[e]}();if(t&amp;&amp;t.previousSibling){var e,r,n,i,c=t.previousSibling,a=c.getAttribute(&quot;data-cfemail&quot;);if(a){for(e=&quot;&quot;,r=parseInt(a.substr(0,2),16),n=2;a.length-n;n+=2)i=parseInt(a.substr(n,2),16)^r,e+=String.fromCharCode(i);e=document.createTextNode(e),c.parentNode.replaceChild(e,c)}}}catch(u){}}();/* ]]&gt; */&lt;/script&gt;\nFormat settings, CABAC : Yes\nFormat settings, ReFrames : 4 frames\nCodec ID : V_MPEG4/ISO/AVC\nDuration : 1h 22mn\nBit rate : 1 099 Kbps\nWidth : 1 280 pixels\nHeight : 534 pixels\nDisplay aspect ratio : 2.40:1\nFrame rate mode : Constant\nFrame rate : 23.976 fps\nColor space : YUV\nChroma subsampling : 4:2:0\nBit depth : 8 bits\nScan type : Progressive\nBits/(Pixel*Frame) : 0.067\nStream size : 632 MiB (75%)\nTitle : Mafiaking\nWriting library : x264 core 142 r2431 ac76440\nLanguage : English\nDefault : Yes\nForced : No\n\n\nAudio #1\nID : 2\nFormat : AC-3\nFormat/Info : Audio Coding 3\nMode extension : CM (complete main)\nFormat settings, Endianness : Big\nCodec ID : A_AC3\nDuration : 1h 22mn\nBit rate mode : Constant\nBit rate : 128 Kbps\nChannel(s) : 2 channels\nChannel positions : Front: L R\nSampling rate : 48.0 KHz\nBit depth : 16 bits\nCompression mode : Lossy\nStream size : 75.5 MiB (9%)\nTitle : Mafiaking\nLanguage : Hindi\nDefault : Yes\nForced : No\n\n\nAudio #2\nID : 3\nFormat : AC-3\nFormat/Info : Audio Coding 3\nMode extension : CM (complete main)\nFormat settings, Endianness : Big\nCodec ID : A_AC3\nDuration : 1h 22mn\nBit rate mode : Constant\nBit rate : 192 Kbps\nChannel(s) : 6 channels\nChannel positions : Front: L C R, Side: L R, LFE\nSampling rate : 48.0 KHz\nBit depth : 16 bits\nCompression mode : Lossy\nStream size : 113 MiB (14%)\nTitle : Mafiaking\nLanguage : English\nDefault : No\nForced : No\n\nScreens:\n &lt;a href=&quot;\nhttp://imgfun.biz/x/img-540520312d4f3.html&quot; rel=&quot;nofollow&quot; target=&quot;_NEW&quot;&gt;\nhttp://imgfun.biz/x/img-540520312d4f3.html&lt;/a&gt;\n &lt;a href=&quot;\nhttp://imgfun.biz/x/img-5405203fd4161.html&quot; rel=&quot;nofollow&quot; target=&quot;_NEW&quot;&gt;\nhttp://imgfun.biz/x/img-5405203fd4161.html&lt;/a&gt;\n &lt;a href=&quot;\nhttp://imgfun.biz/x/img-54052052b1724.html&quot; rel=&quot;nofollow&quot; target=&quot;_NEW&quot;&gt;\nhttp://imgfun.biz/x/img-54052052b1724.html&lt;/a&gt;","torrent":{"xt":"urn:btih:e289cb15aae5054ee21b09b7f107227a449b8cdc","amp;dn":"The+Apparition+%282012%29+720p+Blu-Ray+x264+%5BDual-Audio%5D+%5BEnglish+5.","amp;tr":["udp%3A%2F%2Ftracker.openbittorrent.com%3A80","udp%3A%2F%2Fopen.demonii.com%3A1337","udp%3A%2F%2Ftracker.coppersurfer.tk%3A6969","udp%3A%2F%2Fexodus.desync.com%3A6969"],"infoHash":"e289cb15aae5054ee21b09b7f107227a449b8cdc","infoHashBuffer":{"type":"Buffer","data":[226,137,203,21,170,229,5,78,226,27,9,183,241,7,34,122,68,155,140,220]},"announce":[],"urlList":[]}}